<mxfile host="app.diagrams.net" modified="2020-06-18T13:07:32.172Z" agent="5.0 (X11; Linux x86_64) AppleWebKit/537.36 (KHTML, like Gecko) Chrome/81.0.4044.129 Safari/537.36" etag="4h7piQGtoPXPUn6x-lGK" version="13.2.6" type="github" pages="2">
  <diagram id="2pU-l7eX4DqZHdgauzjn" name="Page-1">
    <mxGraphModel dx="1355" dy="725" grid="1" gridSize="10" guides="1" tooltips="1" connect="1" arrows="1" fold="1" page="1" pageScale="1" pageWidth="850" pageHeight="1100" math="0" shadow="0">
      <root>
        <mxCell id="0" />
        <mxCell id="1" parent="0" />
        <mxCell id="tMHApEmqM_qoqwAZuf_i-1" value="base_link" style="ellipse;whiteSpace=wrap;html=1;" parent="1" vertex="1">
          <mxGeometry x="320" y="140" width="120" height="30" as="geometry" />
        </mxCell>
        <mxCell id="tMHApEmqM_qoqwAZuf_i-3" value="left_laser" style="ellipse;whiteSpace=wrap;html=1;" parent="1" vertex="1">
          <mxGeometry x="230" y="210" width="120" height="30" as="geometry" />
        </mxCell>
        <mxCell id="tMHApEmqM_qoqwAZuf_i-4" value="right_laser" style="ellipse;whiteSpace=wrap;html=1;" parent="1" vertex="1">
          <mxGeometry x="440" y="210" width="120" height="30" as="geometry" />
        </mxCell>
        <mxCell id="tMHApEmqM_qoqwAZuf_i-6" value="front_camera" style="ellipse;whiteSpace=wrap;html=1;" parent="1" vertex="1">
          <mxGeometry x="140" y="290" width="120" height="30" as="geometry" />
        </mxCell>
        <mxCell id="tMHApEmqM_qoqwAZuf_i-7" value="rear_camera" style="ellipse;whiteSpace=wrap;html=1;" parent="1" vertex="1">
          <mxGeometry x="330" y="290" width="120" height="30" as="geometry" />
        </mxCell>
        <mxCell id="tMHApEmqM_qoqwAZuf_i-8" value="" style="curved=1;endArrow=classic;html=1;exitX=0.5;exitY=1;exitDx=0;exitDy=0;entryX=0.367;entryY=0;entryDx=0;entryDy=0;entryPerimeter=0;" parent="1" source="tMHApEmqM_qoqwAZuf_i-1" target="tMHApEmqM_qoqwAZuf_i-3" edge="1">
          <mxGeometry width="50" height="50" relative="1" as="geometry">
            <mxPoint x="210" y="160" as="sourcePoint" />
            <mxPoint x="260" y="110" as="targetPoint" />
            <Array as="points">
              <mxPoint x="290" y="180" />
            </Array>
          </mxGeometry>
        </mxCell>
        <mxCell id="tMHApEmqM_qoqwAZuf_i-10" value="" style="curved=1;endArrow=classic;html=1;" parent="1" target="tMHApEmqM_qoqwAZuf_i-4" edge="1">
          <mxGeometry width="50" height="50" relative="1" as="geometry">
            <mxPoint x="380" y="170" as="sourcePoint" />
            <mxPoint x="500" y="200" as="targetPoint" />
            <Array as="points">
              <mxPoint x="470" y="180" />
            </Array>
          </mxGeometry>
        </mxCell>
        <mxCell id="tMHApEmqM_qoqwAZuf_i-11" value="" style="curved=1;endArrow=classic;html=1;exitX=0.325;exitY=1;exitDx=0;exitDy=0;entryX=0.367;entryY=0;entryDx=0;entryDy=0;entryPerimeter=0;exitPerimeter=0;" parent="1" source="tMHApEmqM_qoqwAZuf_i-3" edge="1">
          <mxGeometry width="50" height="50" relative="1" as="geometry">
            <mxPoint x="305" y="250" as="sourcePoint" />
            <mxPoint x="199.03999999999996" y="290" as="targetPoint" />
            <Array as="points">
              <mxPoint x="180" y="250" />
            </Array>
          </mxGeometry>
        </mxCell>
        <mxCell id="tMHApEmqM_qoqwAZuf_i-12" value="" style="curved=1;endArrow=classic;html=1;" parent="1" target="tMHApEmqM_qoqwAZuf_i-7" edge="1">
          <mxGeometry width="50" height="50" relative="1" as="geometry">
            <mxPoint x="320" y="240" as="sourcePoint" />
            <mxPoint x="430.13606076167844" y="280.2040911425174" as="targetPoint" />
            <Array as="points">
              <mxPoint x="400" y="250" />
            </Array>
          </mxGeometry>
        </mxCell>
      </root>
    </mxGraphModel>
  </diagram>
  <diagram id="jl3nhbmN159zzx99McaW" name="Page-2">
    <mxGraphModel dx="1355" dy="725" grid="1" gridSize="10" guides="1" tooltips="1" connect="1" arrows="1" fold="1" page="1" pageScale="1" pageWidth="850" pageHeight="1100" math="0" shadow="0">
      <root>
        <mxCell id="LAw4Yrp5THHPFHP-zJF--0" />
        <mxCell id="LAw4Yrp5THHPFHP-zJF--1" parent="LAw4Yrp5THHPFHP-zJF--0" />
        <mxCell id="LAw4Yrp5THHPFHP-zJF--4" value="" style="edgeStyle=orthogonalEdgeStyle;rounded=0;orthogonalLoop=1;jettySize=auto;html=1;" edge="1" parent="LAw4Yrp5THHPFHP-zJF--1" source="LAw4Yrp5THHPFHP-zJF--2">
          <mxGeometry relative="1" as="geometry">
            <mxPoint x="420" y="260" as="targetPoint" />
          </mxGeometry>
        </mxCell>
        <mxCell id="LAw4Yrp5THHPFHP-zJF--2" value="1. laser &amp;amp; wheel calibration" style="rounded=1;whiteSpace=wrap;html=1;fillColor=#dae8fc;strokeColor=#6c8ebf;" vertex="1" parent="LAw4Yrp5THHPFHP-zJF--1">
          <mxGeometry x="220" y="230" width="120" height="60" as="geometry" />
        </mxCell>
        <mxCell id="LAw4Yrp5THHPFHP-zJF--7" value="" style="edgeStyle=orthogonalEdgeStyle;rounded=0;orthogonalLoop=1;jettySize=auto;html=1;" edge="1" parent="LAw4Yrp5THHPFHP-zJF--1" source="LAw4Yrp5THHPFHP-zJF--5" target="LAw4Yrp5THHPFHP-zJF--6">
          <mxGeometry relative="1" as="geometry" />
        </mxCell>
        <mxCell id="LAw4Yrp5THHPFHP-zJF--5" value="agent.urdf" style="shape=document;whiteSpace=wrap;html=1;boundedLbl=1;fillColor=#ffe6cc;strokeColor=#d79b00;" vertex="1" parent="LAw4Yrp5THHPFHP-zJF--1">
          <mxGeometry x="420" y="220" width="120" height="80" as="geometry" />
        </mxCell>
        <mxCell id="LAw4Yrp5THHPFHP-zJF--9" style="edgeStyle=orthogonalEdgeStyle;rounded=0;orthogonalLoop=1;jettySize=auto;html=1;" edge="1" parent="LAw4Yrp5THHPFHP-zJF--1" source="LAw4Yrp5THHPFHP-zJF--6" target="LAw4Yrp5THHPFHP-zJF--8">
          <mxGeometry relative="1" as="geometry" />
        </mxCell>
        <mxCell id="LAw4Yrp5THHPFHP-zJF--6" value="2. laser &amp;amp; camera calibration" style="rounded=1;whiteSpace=wrap;html=1;fillColor=#dae8fc;strokeColor=#6c8ebf;" vertex="1" parent="LAw4Yrp5THHPFHP-zJF--1">
          <mxGeometry x="420" y="360" width="120" height="60" as="geometry" />
        </mxCell>
        <mxCell id="LAw4Yrp5THHPFHP-zJF--8" value="updated agent.urdf" style="shape=document;whiteSpace=wrap;html=1;boundedLbl=1;fillColor=#fff2cc;strokeColor=#d6b656;" vertex="1" parent="LAw4Yrp5THHPFHP-zJF--1">
          <mxGeometry x="600" y="350" width="120" height="80" as="geometry" />
        </mxCell>
      </root>
    </mxGraphModel>
  </diagram>
</mxfile>
